<mxfile host="app.diagrams.net" modified="2024-03-04T16:11:16.117Z" agent="Mozilla/5.0 (Windows NT 10.0; Win64; x64) AppleWebKit/537.36 (KHTML, like Gecko) Chrome/122.0.0.0 Safari/537.36" etag="8JnXts3czrBkmGy-gJg3" version="24.0.1" type="github">
  <diagram name="Page-1" id="7e0a89b8-554c-2b80-1dc8-d5c74ca68de4">
    <mxGraphModel dx="1290" dy="522" grid="1" gridSize="10" guides="1" tooltips="1" connect="1" arrows="1" fold="1" page="1" pageScale="1" pageWidth="1100" pageHeight="850" background="none" math="0" shadow="0">
      <root>
        <mxCell id="0" />
        <mxCell id="1" parent="0" />
        <mxCell id="YNHK0xer0Yln5a4zU197-1" value="" style="verticalLabelPosition=bottom;shadow=0;dashed=0;align=center;fillColor=strokeColor;html=1;verticalAlign=top;strokeWidth=1;shape=mxgraph.electrical.miscellaneous.monocell_battery;rotation=-90;strokeColor=#FF0000;" parent="1" vertex="1">
          <mxGeometry x="190" y="140" width="100" height="60" as="geometry" />
        </mxCell>
        <mxCell id="YNHK0xer0Yln5a4zU197-12" style="edgeStyle=orthogonalEdgeStyle;rounded=0;orthogonalLoop=1;jettySize=auto;html=1;exitX=1;exitY=0.8;exitDx=0;exitDy=0;" parent="1" source="YNHK0xer0Yln5a4zU197-3" edge="1">
          <mxGeometry relative="1" as="geometry">
            <mxPoint x="315.0188679245283" y="115.96226415094341" as="targetPoint" />
          </mxGeometry>
        </mxCell>
        <mxCell id="YNHK0xer0Yln5a4zU197-3" value="" style="html=1;shape=mxgraph.electrical.electro-mechanical.singleSwitch;aspect=fixed;elSwitchState=off;strokeColor=#FF0000;" parent="1" vertex="1">
          <mxGeometry x="240" y="100" width="75" height="20" as="geometry" />
        </mxCell>
        <mxCell id="YNHK0xer0Yln5a4zU197-5" value="" style="endArrow=none;html=1;rounded=0;entryX=0;entryY=0.8;entryDx=0;entryDy=0;exitX=1;exitY=0.5;exitDx=0;exitDy=0;exitPerimeter=0;strokeColor=#FF0000;" parent="1" source="YNHK0xer0Yln5a4zU197-1" target="YNHK0xer0Yln5a4zU197-3" edge="1">
          <mxGeometry width="50" height="50" relative="1" as="geometry">
            <mxPoint x="280" y="220" as="sourcePoint" />
            <mxPoint x="330" y="170" as="targetPoint" />
          </mxGeometry>
        </mxCell>
        <mxCell id="YNHK0xer0Yln5a4zU197-6" value="&lt;font color=&quot;#ff0000&quot;&gt;BUCK&lt;/font&gt;" style="rounded=0;whiteSpace=wrap;html=1;strokeColor=#FF0000;" parent="1" vertex="1">
          <mxGeometry x="327" y="130" width="40" height="20" as="geometry" />
        </mxCell>
        <mxCell id="YNHK0xer0Yln5a4zU197-7" value="&lt;font color=&quot;#ff0000&quot;&gt;LDO&lt;/font&gt;" style="rounded=0;whiteSpace=wrap;html=1;strokeColor=#FF0000;" parent="1" vertex="1">
          <mxGeometry x="411" y="130" width="40" height="20" as="geometry" />
        </mxCell>
        <mxCell id="YNHK0xer0Yln5a4zU197-8" value="" style="endArrow=none;html=1;rounded=0;entryX=1;entryY=0.8;entryDx=0;entryDy=0;strokeColor=#FF0000;" parent="1" edge="1">
          <mxGeometry width="50" height="50" relative="1" as="geometry">
            <mxPoint x="320" y="170" as="sourcePoint" />
            <mxPoint x="319.99999999999994" y="115.99999999999997" as="targetPoint" />
          </mxGeometry>
        </mxCell>
        <mxCell id="YNHK0xer0Yln5a4zU197-9" value="" style="endArrow=none;html=1;rounded=0;entryX=0;entryY=0.5;entryDx=0;entryDy=0;strokeColor=#FF0000;" parent="1" target="YNHK0xer0Yln5a4zU197-6" edge="1">
          <mxGeometry width="50" height="50" relative="1" as="geometry">
            <mxPoint x="320" y="140" as="sourcePoint" />
            <mxPoint x="390" y="170" as="targetPoint" />
          </mxGeometry>
        </mxCell>
        <mxCell id="YNHK0xer0Yln5a4zU197-10" value="" style="endArrow=none;html=1;rounded=0;exitX=1;exitY=0.5;exitDx=0;exitDy=0;strokeColor=#FF0000;entryX=0;entryY=0.5;entryDx=0;entryDy=0;" parent="1" source="YNHK0xer0Yln5a4zU197-6" target="YNHK0xer0Yln5a4zU197-7" edge="1">
          <mxGeometry width="50" height="50" relative="1" as="geometry">
            <mxPoint x="360" y="180" as="sourcePoint" />
            <mxPoint x="400" y="140" as="targetPoint" />
          </mxGeometry>
        </mxCell>
        <mxCell id="YNHK0xer0Yln5a4zU197-13" value="" style="endArrow=none;html=1;rounded=0;exitX=1;exitY=0.8;exitDx=0;exitDy=0;strokeColor=#FF0000;" parent="1" source="YNHK0xer0Yln5a4zU197-3" edge="1">
          <mxGeometry width="50" height="50" relative="1" as="geometry">
            <mxPoint x="310" y="160" as="sourcePoint" />
            <mxPoint x="320" y="116" as="targetPoint" />
          </mxGeometry>
        </mxCell>
        <mxCell id="YNHK0xer0Yln5a4zU197-14" value="&lt;font style=&quot;font-size: 24px;&quot;&gt;RPI0W&lt;/font&gt;" style="whiteSpace=wrap;html=1;aspect=fixed;" parent="1" vertex="1">
          <mxGeometry x="290" y="250" width="80" height="80" as="geometry" />
        </mxCell>
        <mxCell id="YNHK0xer0Yln5a4zU197-16" value="" style="endArrow=none;html=1;rounded=0;strokeColor=#FF0000;" parent="1" edge="1">
          <mxGeometry width="50" height="50" relative="1" as="geometry">
            <mxPoint x="330" y="200" as="sourcePoint" />
            <mxPoint x="390" y="200" as="targetPoint" />
          </mxGeometry>
        </mxCell>
        <mxCell id="YNHK0xer0Yln5a4zU197-17" value="" style="endArrow=none;html=1;rounded=0;strokeColor=#FF0000;" parent="1" edge="1">
          <mxGeometry width="50" height="50" relative="1" as="geometry">
            <mxPoint x="390" y="520" as="sourcePoint" />
            <mxPoint x="390" y="140" as="targetPoint" />
          </mxGeometry>
        </mxCell>
        <mxCell id="YNHK0xer0Yln5a4zU197-18" value="&lt;font style=&quot;font-size: 24px;&quot;&gt;STM32&lt;/font&gt;" style="whiteSpace=wrap;html=1;aspect=fixed;" parent="1" vertex="1">
          <mxGeometry x="450" y="250" width="80" height="80" as="geometry" />
        </mxCell>
        <mxCell id="YNHK0xer0Yln5a4zU197-19" value="" style="endArrow=none;html=1;rounded=0;entryX=0.5;entryY=0;entryDx=0;entryDy=0;fontColor=#000000;strokeColor=#FF0000;" parent="1" edge="1">
          <mxGeometry width="50" height="50" relative="1" as="geometry">
            <mxPoint x="470" y="140.25" as="sourcePoint" />
            <mxPoint x="470" y="250.25" as="targetPoint" />
          </mxGeometry>
        </mxCell>
        <mxCell id="YNHK0xer0Yln5a4zU197-20" value="" style="endArrow=none;html=1;rounded=0;exitX=1;exitY=0.5;exitDx=0;exitDy=0;strokeColor=#FF0000;" parent="1" source="YNHK0xer0Yln5a4zU197-7" edge="1">
          <mxGeometry width="50" height="50" relative="1" as="geometry">
            <mxPoint x="460" y="300" as="sourcePoint" />
            <mxPoint x="470" y="140" as="targetPoint" />
          </mxGeometry>
        </mxCell>
        <mxCell id="YNHK0xer0Yln5a4zU197-21" value="" style="endArrow=none;html=1;rounded=0;strokeColor=#FF0000;" parent="1" edge="1">
          <mxGeometry width="50" height="50" relative="1" as="geometry">
            <mxPoint x="320" y="120" as="sourcePoint" />
            <mxPoint x="680" y="120" as="targetPoint" />
          </mxGeometry>
        </mxCell>
        <mxCell id="YNHK0xer0Yln5a4zU197-22" value="" style="rounded=0;whiteSpace=wrap;html=1;rotation=90;strokeColor=#FF0000;" parent="1" vertex="1">
          <mxGeometry x="550" y="139" width="40" height="22.5" as="geometry" />
        </mxCell>
        <mxCell id="YNHK0xer0Yln5a4zU197-23" value="" style="rounded=0;whiteSpace=wrap;html=1;rotation=90;strokeColor=#FF0000;" parent="1" vertex="1">
          <mxGeometry x="550" y="189" width="40" height="22.5" as="geometry" />
        </mxCell>
        <mxCell id="mIiXKoOfyeDqCLVj9vbO-3" value="&lt;font style=&quot;font-size: 16px;&quot;&gt;Wifi&lt;/font&gt;" style="text;align=center;html=1;verticalAlign=middle;whiteSpace=wrap;rounded=0;fontColor=#0000FF;" parent="1" vertex="1">
          <mxGeometry x="225" y="260" width="60" height="30" as="geometry" />
        </mxCell>
        <mxCell id="YNHK0xer0Yln5a4zU197-24" value="" style="endArrow=none;html=1;rounded=0;strokeColor=#FF0000;" parent="1" edge="1">
          <mxGeometry width="50" height="50" relative="1" as="geometry">
            <mxPoint x="570" y="120" as="sourcePoint" />
            <mxPoint x="570" y="130" as="targetPoint" />
          </mxGeometry>
        </mxCell>
        <mxCell id="YNHK0xer0Yln5a4zU197-36" value="" style="endArrow=none;html=1;rounded=0;strokeColor=#FF0000;" parent="1" edge="1">
          <mxGeometry width="50" height="50" relative="1" as="geometry">
            <mxPoint x="570" y="230" as="sourcePoint" />
            <mxPoint x="620" y="230" as="targetPoint" />
          </mxGeometry>
        </mxCell>
        <mxCell id="YNHK0xer0Yln5a4zU197-37" value="" style="endArrow=none;html=1;rounded=0;entryX=1;entryY=0.5;entryDx=0;entryDy=0;entryPerimeter=0;strokeColor=#FF0000;" parent="1" target="YNHK0xer0Yln5a4zU197-34" edge="1">
          <mxGeometry width="50" height="50" relative="1" as="geometry">
            <mxPoint x="620" y="230" as="sourcePoint" />
            <mxPoint x="630" y="190" as="targetPoint" />
          </mxGeometry>
        </mxCell>
        <mxCell id="mIiXKoOfyeDqCLVj9vbO-1" value="" style="endArrow=classic;startArrow=classic;html=1;rounded=0;entryX=0;entryY=0.5;entryDx=0;entryDy=0;" parent="1" target="YNHK0xer0Yln5a4zU197-14" edge="1">
          <mxGeometry width="50" height="50" relative="1" as="geometry">
            <mxPoint x="220" y="290" as="sourcePoint" />
            <mxPoint x="290" y="250" as="targetPoint" />
          </mxGeometry>
        </mxCell>
        <mxCell id="YNHK0xer0Yln5a4zU197-38" value="MOSFET" style="rounded=0;whiteSpace=wrap;html=1;" parent="1" vertex="1">
          <mxGeometry x="650" y="260" width="60" height="20" as="geometry" />
        </mxCell>
        <mxCell id="YNHK0xer0Yln5a4zU197-39" value="" style="endArrow=none;html=1;rounded=0;entryX=0;entryY=0.5;entryDx=0;entryDy=0;exitX=1;exitY=0.25;exitDx=0;exitDy=0;" parent="1" source="YNHK0xer0Yln5a4zU197-18" target="YNHK0xer0Yln5a4zU197-38" edge="1">
          <mxGeometry width="50" height="50" relative="1" as="geometry">
            <mxPoint x="490" y="310" as="sourcePoint" />
            <mxPoint x="540" y="260" as="targetPoint" />
          </mxGeometry>
        </mxCell>
        <mxCell id="YNHK0xer0Yln5a4zU197-40" value="" style="endArrow=none;html=1;rounded=0;exitX=0.5;exitY=0;exitDx=0;exitDy=0;strokeColor=#FF0000;entryX=1;entryY=0.5;entryDx=0;entryDy=0;" parent="1" source="YNHK0xer0Yln5a4zU197-38" target="YNHK0xer0Yln5a4zU197-82" edge="1">
          <mxGeometry width="50" height="50" relative="1" as="geometry">
            <mxPoint x="590" y="300" as="sourcePoint" />
            <mxPoint x="680" y="190" as="targetPoint" />
          </mxGeometry>
        </mxCell>
        <mxCell id="mIiXKoOfyeDqCLVj9vbO-2" value="&lt;font style=&quot;font-size: 24px;&quot;&gt;PC&lt;/font&gt;" style="rounded=0;whiteSpace=wrap;html=1;" parent="1" vertex="1">
          <mxGeometry x="150" y="260" width="70" height="60" as="geometry" />
        </mxCell>
        <mxCell id="YNHK0xer0Yln5a4zU197-41" value="&lt;font style=&quot;font-size: 24px;&quot;&gt;Moteur&lt;/font&gt;" style="ellipse;whiteSpace=wrap;html=1;" parent="1" vertex="1">
          <mxGeometry x="790" y="245" width="90" height="50" as="geometry" />
        </mxCell>
        <mxCell id="YNHK0xer0Yln5a4zU197-42" value="" style="endArrow=none;html=1;rounded=0;exitX=1;exitY=0.5;exitDx=0;exitDy=0;entryX=0;entryY=0.5;entryDx=0;entryDy=0;" parent="1" source="YNHK0xer0Yln5a4zU197-38" target="YNHK0xer0Yln5a4zU197-41" edge="1">
          <mxGeometry width="50" height="50" relative="1" as="geometry">
            <mxPoint x="730" y="330" as="sourcePoint" />
            <mxPoint x="780" y="280" as="targetPoint" />
          </mxGeometry>
        </mxCell>
        <mxCell id="YNHK0xer0Yln5a4zU197-44" value="&lt;font style=&quot;font-size: 24px;&quot;&gt;TOF&lt;/font&gt;" style="ellipse;whiteSpace=wrap;html=1;" parent="1" vertex="1">
          <mxGeometry x="790" y="366" width="90" height="50" as="geometry" />
        </mxCell>
        <mxCell id="YNHK0xer0Yln5a4zU197-43" value="&lt;font style=&quot;font-size: 24px;&quot;&gt;Servo&lt;/font&gt;" style="ellipse;whiteSpace=wrap;html=1;" parent="1" vertex="1">
          <mxGeometry x="790" y="305" width="90" height="50" as="geometry" />
        </mxCell>
        <mxCell id="YNHK0xer0Yln5a4zU197-45" value="&lt;font style=&quot;font-size: 24px;&quot;&gt;IMU&lt;/font&gt;" style="ellipse;whiteSpace=wrap;html=1;" parent="1" vertex="1">
          <mxGeometry x="790" y="425" width="90" height="50" as="geometry" />
        </mxCell>
        <mxCell id="YNHK0xer0Yln5a4zU197-46" value="" style="endArrow=none;html=1;rounded=0;entryX=0;entryY=0.5;entryDx=0;entryDy=0;" parent="1" target="YNHK0xer0Yln5a4zU197-43" edge="1">
          <mxGeometry width="50" height="50" relative="1" as="geometry">
            <mxPoint x="730" y="330" as="sourcePoint" />
            <mxPoint x="750" y="340" as="targetPoint" />
          </mxGeometry>
        </mxCell>
        <mxCell id="YNHK0xer0Yln5a4zU197-47" value="" style="endArrow=none;html=1;rounded=0;" parent="1" edge="1">
          <mxGeometry width="50" height="50" relative="1" as="geometry">
            <mxPoint x="730" y="310" as="sourcePoint" />
            <mxPoint x="730" y="330" as="targetPoint" />
          </mxGeometry>
        </mxCell>
        <mxCell id="mIiXKoOfyeDqCLVj9vbO-10" value="" style="endArrow=none;html=1;rounded=0;strokeColor=#FF0000;" parent="1" edge="1">
          <mxGeometry width="50" height="50" relative="1" as="geometry">
            <mxPoint x="230" y="220" as="sourcePoint" />
            <mxPoint x="250" y="220" as="targetPoint" />
          </mxGeometry>
        </mxCell>
        <mxCell id="mIiXKoOfyeDqCLVj9vbO-11" value="" style="endArrow=none;html=1;rounded=0;strokeColor=#FF0000;" parent="1" edge="1">
          <mxGeometry width="50" height="50" relative="1" as="geometry">
            <mxPoint x="220" y="230" as="sourcePoint" />
            <mxPoint x="230" y="220" as="targetPoint" />
          </mxGeometry>
        </mxCell>
        <mxCell id="mIiXKoOfyeDqCLVj9vbO-12" value="" style="endArrow=none;html=1;rounded=0;strokeColor=#FF0000;" parent="1" edge="1">
          <mxGeometry width="50" height="50" relative="1" as="geometry">
            <mxPoint x="230" y="230" as="sourcePoint" />
            <mxPoint x="240" y="220" as="targetPoint" />
          </mxGeometry>
        </mxCell>
        <mxCell id="YNHK0xer0Yln5a4zU197-52" value="" style="endArrow=none;html=1;rounded=0;exitX=1.018;exitY=0.63;exitDx=0;exitDy=0;exitPerimeter=0;" parent="1" edge="1">
          <mxGeometry width="50" height="50" relative="1" as="geometry">
            <mxPoint x="531" y="319.46" as="sourcePoint" />
            <mxPoint x="700" y="320" as="targetPoint" />
          </mxGeometry>
        </mxCell>
        <mxCell id="mIiXKoOfyeDqCLVj9vbO-13" value="" style="endArrow=none;html=1;rounded=0;strokeColor=#FF0000;" parent="1" edge="1">
          <mxGeometry width="50" height="50" relative="1" as="geometry">
            <mxPoint x="240" y="230" as="sourcePoint" />
            <mxPoint x="250" y="220" as="targetPoint" />
          </mxGeometry>
        </mxCell>
        <mxCell id="YNHK0xer0Yln5a4zU197-53" value="" style="endArrow=none;html=1;rounded=0;entryX=0;entryY=0.5;entryDx=0;entryDy=0;" parent="1" edge="1">
          <mxGeometry width="50" height="50" relative="1" as="geometry">
            <mxPoint x="670" y="450" as="sourcePoint" />
            <mxPoint x="790" y="450.23" as="targetPoint" />
          </mxGeometry>
        </mxCell>
        <mxCell id="YNHK0xer0Yln5a4zU197-48" value="" style="endArrow=none;html=1;rounded=0;exitX=1.018;exitY=0.63;exitDx=0;exitDy=0;exitPerimeter=0;" parent="1" edge="1">
          <mxGeometry width="50" height="50" relative="1" as="geometry">
            <mxPoint x="531.4399999999999" y="310.09999999999997" as="sourcePoint" />
            <mxPoint x="730" y="309.7" as="targetPoint" />
          </mxGeometry>
        </mxCell>
        <mxCell id="YNHK0xer0Yln5a4zU197-54" value="" style="endArrow=none;html=1;rounded=0;" parent="1" edge="1">
          <mxGeometry width="50" height="50" relative="1" as="geometry">
            <mxPoint x="670" y="450" as="sourcePoint" />
            <mxPoint x="670" y="350" as="targetPoint" />
          </mxGeometry>
        </mxCell>
        <mxCell id="YNHK0xer0Yln5a4zU197-49" value="" style="endArrow=none;html=1;rounded=0;entryX=0;entryY=0.5;entryDx=0;entryDy=0;" parent="1" edge="1">
          <mxGeometry width="50" height="50" relative="1" as="geometry">
            <mxPoint x="700" y="390" as="sourcePoint" />
            <mxPoint x="790" y="390.73" as="targetPoint" />
          </mxGeometry>
        </mxCell>
        <mxCell id="YNHK0xer0Yln5a4zU197-55" value="" style="endArrow=none;html=1;rounded=0;" parent="1" edge="1">
          <mxGeometry width="50" height="50" relative="1" as="geometry">
            <mxPoint x="490" y="350" as="sourcePoint" />
            <mxPoint x="670" y="350" as="targetPoint" />
          </mxGeometry>
        </mxCell>
        <mxCell id="YNHK0xer0Yln5a4zU197-50" value="" style="endArrow=none;html=1;rounded=0;" parent="1" edge="1">
          <mxGeometry width="50" height="50" relative="1" as="geometry">
            <mxPoint x="700" y="320" as="sourcePoint" />
            <mxPoint x="700" y="390" as="targetPoint" />
          </mxGeometry>
        </mxCell>
        <mxCell id="mIiXKoOfyeDqCLVj9vbO-4" value="&lt;font style=&quot;font-size: 24px;&quot;&gt;CAM&lt;/font&gt;" style="ellipse;whiteSpace=wrap;html=1;" parent="1" vertex="1">
          <mxGeometry x="285" y="380" width="90" height="60" as="geometry" />
        </mxCell>
        <mxCell id="YNHK0xer0Yln5a4zU197-26" value="" style="endArrow=none;html=1;rounded=0;entryX=1;entryY=0.5;entryDx=0;entryDy=0;strokeColor=#FF0000;" parent="1" target="YNHK0xer0Yln5a4zU197-23" edge="1">
          <mxGeometry width="50" height="50" relative="1" as="geometry">
            <mxPoint x="570" y="240" as="sourcePoint" />
            <mxPoint x="580" y="200" as="targetPoint" />
          </mxGeometry>
        </mxCell>
        <mxCell id="mIiXKoOfyeDqCLVj9vbO-5" value="" style="endArrow=classic;html=1;rounded=0;exitX=0.5;exitY=1;exitDx=0;exitDy=0;entryX=0.5;entryY=0;entryDx=0;entryDy=0;" parent="1" source="YNHK0xer0Yln5a4zU197-14" target="mIiXKoOfyeDqCLVj9vbO-4" edge="1">
          <mxGeometry width="50" height="50" relative="1" as="geometry">
            <mxPoint x="330" y="300" as="sourcePoint" />
            <mxPoint x="380" y="250" as="targetPoint" />
          </mxGeometry>
        </mxCell>
        <mxCell id="mIiXKoOfyeDqCLVj9vbO-6" value="&lt;font style=&quot;font-size: 16px;&quot;&gt;CSI&lt;/font&gt;" style="text;strokeColor=none;align=center;fillColor=none;html=1;verticalAlign=middle;whiteSpace=wrap;rounded=0;fontColor=#0000FF;" parent="1" vertex="1">
          <mxGeometry x="315" y="344" width="60" height="30" as="geometry" />
        </mxCell>
        <mxCell id="YNHK0xer0Yln5a4zU197-30" value="" style="endArrow=none;html=1;rounded=0;strokeColor=#FF0000;" parent="1" edge="1">
          <mxGeometry width="50" height="50" relative="1" as="geometry">
            <mxPoint x="560" y="240" as="sourcePoint" />
            <mxPoint x="580" y="240" as="targetPoint" />
          </mxGeometry>
        </mxCell>
        <mxCell id="YNHK0xer0Yln5a4zU197-31" value="" style="endArrow=none;html=1;rounded=0;strokeColor=#FF0000;" parent="1" edge="1">
          <mxGeometry width="50" height="50" relative="1" as="geometry">
            <mxPoint x="550" y="250" as="sourcePoint" />
            <mxPoint x="560" y="240" as="targetPoint" />
          </mxGeometry>
        </mxCell>
        <mxCell id="YNHK0xer0Yln5a4zU197-32" value="" style="endArrow=none;html=1;rounded=0;strokeColor=#FF0000;" parent="1" edge="1">
          <mxGeometry width="50" height="50" relative="1" as="geometry">
            <mxPoint x="560" y="250" as="sourcePoint" />
            <mxPoint x="570" y="240" as="targetPoint" />
          </mxGeometry>
        </mxCell>
        <mxCell id="YNHK0xer0Yln5a4zU197-33" value="" style="endArrow=none;html=1;rounded=0;strokeColor=#FF0000;" parent="1" edge="1">
          <mxGeometry width="50" height="50" relative="1" as="geometry">
            <mxPoint x="570" y="250" as="sourcePoint" />
            <mxPoint x="580" y="240" as="targetPoint" />
          </mxGeometry>
        </mxCell>
        <mxCell id="mIiXKoOfyeDqCLVj9vbO-8" value="" style="endArrow=classic;startArrow=classic;html=1;rounded=0;exitX=1;exitY=0.5;exitDx=0;exitDy=0;entryX=0;entryY=0.5;entryDx=0;entryDy=0;" parent="1" source="YNHK0xer0Yln5a4zU197-14" target="YNHK0xer0Yln5a4zU197-18" edge="1">
          <mxGeometry width="50" height="50" relative="1" as="geometry">
            <mxPoint x="380" y="300" as="sourcePoint" />
            <mxPoint x="430" y="250" as="targetPoint" />
          </mxGeometry>
        </mxCell>
        <mxCell id="YNHK0xer0Yln5a4zU197-34" value="" style="pointerEvents=1;verticalLabelPosition=bottom;shadow=0;dashed=0;align=center;html=1;verticalAlign=top;shape=mxgraph.electrical.capacitors.capacitor_1;rotation=90;strokeColor=#FF0000;" parent="1" vertex="1">
          <mxGeometry x="600" y="180.25" width="40" height="30" as="geometry" />
        </mxCell>
        <mxCell id="mIiXKoOfyeDqCLVj9vbO-9" value="&lt;font style=&quot;font-size: 16px;&quot;&gt;UART&lt;/font&gt;" style="text;strokeColor=none;align=center;fillColor=none;html=1;verticalAlign=middle;whiteSpace=wrap;rounded=0;fontColor=#0000FF;" parent="1" vertex="1">
          <mxGeometry x="380" y="290" width="60" height="30" as="geometry" />
        </mxCell>
        <mxCell id="YNHK0xer0Yln5a4zU197-35" value="" style="endArrow=none;html=1;rounded=0;strokeColor=#FF0000;" parent="1" edge="1">
          <mxGeometry width="50" height="50" relative="1" as="geometry">
            <mxPoint x="570" y="175" as="sourcePoint" />
            <mxPoint x="620" y="175" as="targetPoint" />
          </mxGeometry>
        </mxCell>
        <mxCell id="YNHK0xer0Yln5a4zU197-25" value="" style="endArrow=none;html=1;rounded=0;exitX=0;exitY=0.5;exitDx=0;exitDy=0;entryX=1;entryY=0.5;entryDx=0;entryDy=0;strokeColor=#FF0000;" parent="1" source="YNHK0xer0Yln5a4zU197-23" target="YNHK0xer0Yln5a4zU197-22" edge="1">
          <mxGeometry width="50" height="50" relative="1" as="geometry">
            <mxPoint x="530" y="200" as="sourcePoint" />
            <mxPoint x="580" y="150" as="targetPoint" />
          </mxGeometry>
        </mxCell>
        <mxCell id="YNHK0xer0Yln5a4zU197-56" value="" style="endArrow=none;html=1;rounded=0;entryX=0.5;entryY=1;entryDx=0;entryDy=0;" parent="1" target="YNHK0xer0Yln5a4zU197-18" edge="1">
          <mxGeometry width="50" height="50" relative="1" as="geometry">
            <mxPoint x="490" y="350" as="sourcePoint" />
            <mxPoint x="540" y="320" as="targetPoint" />
          </mxGeometry>
        </mxCell>
        <mxCell id="mIiXKoOfyeDqCLVj9vbO-14" value="" style="endArrow=none;html=1;rounded=0;exitX=0.5;exitY=0;exitDx=0;exitDy=0;strokeColor=#FF0000;" parent="1" source="YNHK0xer0Yln5a4zU197-14" edge="1">
          <mxGeometry width="50" height="50" relative="1" as="geometry">
            <mxPoint x="300" y="230" as="sourcePoint" />
            <mxPoint x="330" y="200" as="targetPoint" />
          </mxGeometry>
        </mxCell>
        <mxCell id="YNHK0xer0Yln5a4zU197-57" value="" style="endArrow=none;html=1;rounded=0;strokeColor=#FF0000;" parent="1" edge="1">
          <mxGeometry width="50" height="50" relative="1" as="geometry">
            <mxPoint x="390" y="520" as="sourcePoint" />
            <mxPoint x="960" y="520" as="targetPoint" />
          </mxGeometry>
        </mxCell>
        <mxCell id="YNHK0xer0Yln5a4zU197-58" value="" style="endArrow=none;html=1;rounded=0;strokeColor=#FF0000;" parent="1" edge="1">
          <mxGeometry width="50" height="50" relative="1" as="geometry">
            <mxPoint x="960" y="520" as="sourcePoint" />
            <mxPoint x="960" y="330" as="targetPoint" />
          </mxGeometry>
        </mxCell>
        <mxCell id="YNHK0xer0Yln5a4zU197-59" value="" style="endArrow=none;html=1;rounded=0;exitX=1;exitY=0.5;exitDx=0;exitDy=0;strokeColor=#FF0000;" parent="1" source="YNHK0xer0Yln5a4zU197-43" edge="1">
          <mxGeometry width="50" height="50" relative="1" as="geometry">
            <mxPoint x="770" y="360" as="sourcePoint" />
            <mxPoint x="960" y="330" as="targetPoint" />
          </mxGeometry>
        </mxCell>
        <mxCell id="YNHK0xer0Yln5a4zU197-60" value="" style="endArrow=none;html=1;rounded=0;exitX=0.75;exitY=0;exitDx=0;exitDy=0;strokeColor=#FF0000;" parent="1" source="YNHK0xer0Yln5a4zU197-18" edge="1">
          <mxGeometry width="50" height="50" relative="1" as="geometry">
            <mxPoint x="520" y="175" as="sourcePoint" />
            <mxPoint x="570" y="175" as="targetPoint" />
            <Array as="points">
              <mxPoint x="510" y="175" />
            </Array>
          </mxGeometry>
        </mxCell>
        <mxCell id="mIiXKoOfyeDqCLVj9vbO-18" value="&lt;font color=&quot;#ff0000&quot;&gt;7,4V&lt;/font&gt;" style="text;strokeColor=none;align=center;fillColor=none;html=1;verticalAlign=middle;whiteSpace=wrap;rounded=0;" parent="1" vertex="1">
          <mxGeometry x="272" y="165" width="35" height="20.25" as="geometry" />
        </mxCell>
        <mxCell id="mIiXKoOfyeDqCLVj9vbO-19" value="&lt;font color=&quot;#ff0000&quot;&gt;5V&lt;/font&gt;" style="text;strokeColor=none;align=center;fillColor=none;html=1;verticalAlign=middle;whiteSpace=wrap;rounded=0;" parent="1" vertex="1">
          <mxGeometry x="380" y="129" width="20" height="9" as="geometry" />
        </mxCell>
        <mxCell id="YNHK0xer0Yln5a4zU197-62" value="" style="endArrow=none;html=1;rounded=0;entryX=0.839;entryY=1;entryDx=0;entryDy=0;entryPerimeter=0;strokeColor=#FF0000;" parent="1" edge="1">
          <mxGeometry width="50" height="50" relative="1" as="geometry">
            <mxPoint x="430" y="200" as="sourcePoint" />
            <mxPoint x="470" y="200" as="targetPoint" />
          </mxGeometry>
        </mxCell>
        <mxCell id="YNHK0xer0Yln5a4zU197-63" value="" style="endArrow=none;html=1;rounded=0;strokeColor=#FF0000;" parent="1" edge="1">
          <mxGeometry width="50" height="50" relative="1" as="geometry">
            <mxPoint x="430" y="500" as="sourcePoint" />
            <mxPoint x="430" y="200" as="targetPoint" />
          </mxGeometry>
        </mxCell>
        <mxCell id="mIiXKoOfyeDqCLVj9vbO-20" value="&lt;font color=&quot;#ff0000&quot;&gt;3,3V&lt;/font&gt;" style="text;strokeColor=none;align=center;fillColor=none;html=1;verticalAlign=middle;whiteSpace=wrap;rounded=0;" parent="1" vertex="1">
          <mxGeometry x="469" y="129" width="30" height="10" as="geometry" />
        </mxCell>
        <mxCell id="YNHK0xer0Yln5a4zU197-64" value="" style="endArrow=none;html=1;rounded=0;strokeColor=#FF0000;" parent="1" edge="1">
          <mxGeometry width="50" height="50" relative="1" as="geometry">
            <mxPoint x="430" y="500" as="sourcePoint" />
            <mxPoint x="900" y="500" as="targetPoint" />
          </mxGeometry>
        </mxCell>
        <mxCell id="YNHK0xer0Yln5a4zU197-65" value="" style="endArrow=none;html=1;rounded=0;strokeColor=#FF0000;" parent="1" edge="1">
          <mxGeometry width="50" height="50" relative="1" as="geometry">
            <mxPoint x="900" y="501" as="sourcePoint" />
            <mxPoint x="900" y="391" as="targetPoint" />
          </mxGeometry>
        </mxCell>
        <mxCell id="YNHK0xer0Yln5a4zU197-66" value="" style="endArrow=none;html=1;rounded=0;exitX=1;exitY=0.5;exitDx=0;exitDy=0;strokeColor=#FF0000;" parent="1" source="YNHK0xer0Yln5a4zU197-44" edge="1">
          <mxGeometry width="50" height="50" relative="1" as="geometry">
            <mxPoint x="850" y="450" as="sourcePoint" />
            <mxPoint x="900" y="391" as="targetPoint" />
          </mxGeometry>
        </mxCell>
        <mxCell id="YNHK0xer0Yln5a4zU197-67" value="" style="endArrow=none;html=1;rounded=0;exitX=1;exitY=0.5;exitDx=0;exitDy=0;strokeColor=#FF0000;" parent="1" source="YNHK0xer0Yln5a4zU197-45" edge="1">
          <mxGeometry width="50" height="50" relative="1" as="geometry">
            <mxPoint x="850" y="490" as="sourcePoint" />
            <mxPoint x="900" y="450" as="targetPoint" />
          </mxGeometry>
        </mxCell>
        <mxCell id="mIiXKoOfyeDqCLVj9vbO-22" value="&lt;font color=&quot;#ff0000&quot;&gt;V&lt;sub&gt;CC&lt;/sub&gt;&lt;/font&gt;" style="text;strokeColor=none;align=center;fillColor=none;html=1;verticalAlign=middle;whiteSpace=wrap;rounded=0;" parent="1" vertex="1">
          <mxGeometry x="665" y="234" width="60" height="30" as="geometry" />
        </mxCell>
        <mxCell id="mIiXKoOfyeDqCLVj9vbO-23" value="&lt;font style=&quot;font-size: 10px;&quot; color=&quot;#ff0000&quot;&gt;1.7 MOhm&lt;/font&gt;" style="text;strokeColor=none;align=center;fillColor=none;html=1;verticalAlign=middle;whiteSpace=wrap;rounded=0;rotation=-90;" parent="1" vertex="1">
          <mxGeometry x="520" y="189" width="60" height="30" as="geometry" />
        </mxCell>
        <mxCell id="mIiXKoOfyeDqCLVj9vbO-25" value="&lt;font color=&quot;#ff0000&quot;&gt;3,3V&lt;/font&gt;" style="text;strokeColor=none;align=center;fillColor=none;html=1;verticalAlign=middle;whiteSpace=wrap;rounded=0;" parent="1" vertex="1">
          <mxGeometry x="426" y="228" width="60" height="30" as="geometry" />
        </mxCell>
        <mxCell id="YNHK0xer0Yln5a4zU197-72" value="" style="endArrow=none;dashed=1;html=1;dashPattern=1 3;strokeWidth=2;rounded=0;strokeColor=#00FF00;" parent="1" edge="1">
          <mxGeometry width="50" height="50" relative="1" as="geometry">
            <mxPoint x="610" y="300" as="sourcePoint" />
            <mxPoint x="610" y="240" as="targetPoint" />
          </mxGeometry>
        </mxCell>
        <mxCell id="YNHK0xer0Yln5a4zU197-73" value="" style="endArrow=none;dashed=1;html=1;dashPattern=1 3;strokeWidth=2;rounded=0;strokeColor=#00FF00;" parent="1" edge="1">
          <mxGeometry width="50" height="50" relative="1" as="geometry">
            <mxPoint x="900" y="299.82" as="sourcePoint" />
            <mxPoint x="610" y="299.82" as="targetPoint" />
          </mxGeometry>
        </mxCell>
        <mxCell id="mIiXKoOfyeDqCLVj9vbO-26" value="&lt;font color=&quot;#ff0000&quot;&gt;5V&lt;/font&gt;" style="text;strokeColor=none;align=center;fillColor=none;html=1;verticalAlign=middle;whiteSpace=wrap;rounded=0;" parent="1" vertex="1">
          <mxGeometry x="310" y="227" width="60" height="30" as="geometry" />
        </mxCell>
        <mxCell id="YNHK0xer0Yln5a4zU197-74" value="" style="endArrow=none;dashed=1;html=1;dashPattern=1 3;strokeWidth=2;rounded=0;fillColor=#00FF00;strokeColor=#00FF00;" parent="1" edge="1">
          <mxGeometry width="50" height="50" relative="1" as="geometry">
            <mxPoint x="900" y="300" as="sourcePoint" />
            <mxPoint x="900" y="240" as="targetPoint" />
          </mxGeometry>
        </mxCell>
        <mxCell id="mIiXKoOfyeDqCLVj9vbO-29" value="&lt;font color=&quot;#ff0000&quot;&gt;5V&lt;/font&gt;" style="text;strokeColor=none;align=center;fillColor=none;html=1;verticalAlign=middle;whiteSpace=wrap;rounded=0;" parent="1" vertex="1">
          <mxGeometry x="870" y="305" width="60" height="30" as="geometry" />
        </mxCell>
        <mxCell id="YNHK0xer0Yln5a4zU197-75" value="&lt;font color=&quot;#00ff00&quot;&gt;x2&lt;/font&gt;" style="text;strokeColor=none;align=center;fillColor=none;html=1;verticalAlign=middle;whiteSpace=wrap;rounded=0;" parent="1" vertex="1">
          <mxGeometry x="900" y="225" width="20" height="20" as="geometry" />
        </mxCell>
        <mxCell id="mIiXKoOfyeDqCLVj9vbO-31" value="&lt;font color=&quot;#ff0000&quot;&gt;3,3V&lt;/font&gt;" style="text;strokeColor=none;align=center;fillColor=none;html=1;verticalAlign=middle;whiteSpace=wrap;rounded=0;" parent="1" vertex="1">
          <mxGeometry x="860" y="366" width="60" height="30" as="geometry" />
        </mxCell>
        <mxCell id="mIiXKoOfyeDqCLVj9vbO-33" value="&lt;font color=&quot;#ff0000&quot;&gt;3,3V&lt;/font&gt;" style="text;strokeColor=none;align=center;fillColor=none;html=1;verticalAlign=middle;whiteSpace=wrap;rounded=0;" parent="1" vertex="1">
          <mxGeometry x="860" y="425" width="60" height="30" as="geometry" />
        </mxCell>
        <mxCell id="mIiXKoOfyeDqCLVj9vbO-38" value="&lt;font style=&quot;font-size: 16px;&quot;&gt;SPI&lt;/font&gt;" style="text;strokeColor=none;align=center;fillColor=none;html=1;verticalAlign=middle;whiteSpace=wrap;rounded=0;fontColor=#0000FF;" parent="1" vertex="1">
          <mxGeometry x="550" y="325" width="80" height="30" as="geometry" />
        </mxCell>
        <mxCell id="YNHK0xer0Yln5a4zU197-76" value="&lt;font style=&quot;font-size: 10px;&quot; color=&quot;#ff0000&quot;&gt;1 MOhm&lt;/font&gt;" style="text;strokeColor=none;align=center;fillColor=none;html=1;verticalAlign=middle;whiteSpace=wrap;rounded=0;rotation=-90;" parent="1" vertex="1">
          <mxGeometry x="520" y="135.25" width="60" height="30" as="geometry" />
        </mxCell>
        <mxCell id="YNHK0xer0Yln5a4zU197-78" value="&amp;nbsp;LiPo -&amp;gt; 2s1p&amp;nbsp;" style="text;strokeColor=none;align=center;fillColor=none;html=1;verticalAlign=middle;whiteSpace=wrap;rounded=0;fontColor=#FF3333;labelBorderColor=#FF3333;rotation=-90;fontStyle=1" parent="1" vertex="1">
          <mxGeometry x="135" y="150" width="100" height="50" as="geometry" />
        </mxCell>
        <mxCell id="mIiXKoOfyeDqCLVj9vbO-41" value="&lt;font style=&quot;font-size: 16px;&quot;&gt;I&lt;/font&gt;&lt;font style=&quot;font-size: 13.3333px;&quot;&gt;&lt;sub&gt;2&lt;/sub&gt;C&lt;/font&gt;" style="text;strokeColor=none;align=center;fillColor=none;html=1;verticalAlign=middle;whiteSpace=wrap;rounded=0;fontColor=#0000FF;" parent="1" vertex="1">
          <mxGeometry x="700" y="364" width="80" height="30" as="geometry" />
        </mxCell>
        <mxCell id="YNHK0xer0Yln5a4zU197-79" value="&lt;font style=&quot;font-size: 16px;&quot;&gt;PWM&lt;/font&gt;" style="text;strokeColor=none;align=center;fillColor=none;html=1;verticalAlign=middle;whiteSpace=wrap;rounded=0;fontColor=#0000FF;" parent="1" vertex="1">
          <mxGeometry x="530" y="285" width="80" height="30" as="geometry" />
        </mxCell>
        <mxCell id="YNHK0xer0Yln5a4zU197-80" value="&lt;font style=&quot;font-size: 16px;&quot;&gt;PWM&lt;/font&gt;" style="text;strokeColor=none;align=center;fillColor=none;html=1;verticalAlign=middle;whiteSpace=wrap;rounded=0;fontColor=#0000FF;" parent="1" vertex="1">
          <mxGeometry x="528" y="244" width="80" height="30" as="geometry" />
        </mxCell>
        <mxCell id="YNHK0xer0Yln5a4zU197-69" value="" style="endArrow=none;dashed=1;html=1;dashPattern=1 3;strokeWidth=2;rounded=0;strokeColor=#00FF00;" parent="1" edge="1">
          <mxGeometry width="50" height="50" relative="1" as="geometry">
            <mxPoint x="900" y="240" as="sourcePoint" />
            <mxPoint x="610" y="240" as="targetPoint" />
          </mxGeometry>
        </mxCell>
        <mxCell id="YNHK0xer0Yln5a4zU197-82" value="&lt;font color=&quot;#ff0000&quot;&gt;BUCK&lt;/font&gt;" style="rounded=0;whiteSpace=wrap;html=1;strokeColor=#FF0000;rotation=90;" parent="1" vertex="1">
          <mxGeometry x="660" y="141.5" width="40" height="20" as="geometry" />
        </mxCell>
        <mxCell id="YNHK0xer0Yln5a4zU197-83" value="" style="endArrow=none;html=1;rounded=0;strokeColor=#FF0000;entryX=0.011;entryY=0.498;entryDx=0;entryDy=0;entryPerimeter=0;" parent="1" target="YNHK0xer0Yln5a4zU197-82" edge="1">
          <mxGeometry width="50" height="50" relative="1" as="geometry">
            <mxPoint x="680" y="120" as="sourcePoint" />
            <mxPoint x="680" y="130" as="targetPoint" />
          </mxGeometry>
        </mxCell>
        <mxCell id="YNHK0xer0Yln5a4zU197-85" value="" style="verticalLabelPosition=bottom;shadow=0;dashed=0;align=center;html=1;verticalAlign=top;shape=mxgraph.electrical.opto_electronics.led_1;pointerEvents=1;strokeColor=#FF0000;" parent="1" vertex="1">
          <mxGeometry x="326" y="162" width="40" height="15" as="geometry" />
        </mxCell>
        <mxCell id="YNHK0xer0Yln5a4zU197-87" value="" style="endArrow=none;html=1;rounded=0;exitX=0;exitY=0.54;exitDx=0;exitDy=0;exitPerimeter=0;strokeColor=#FF0000;" parent="1" source="YNHK0xer0Yln5a4zU197-85" edge="1">
          <mxGeometry width="50" height="50" relative="1" as="geometry">
            <mxPoint x="260" y="220" as="sourcePoint" />
            <mxPoint x="320" y="170" as="targetPoint" />
          </mxGeometry>
        </mxCell>
        <mxCell id="YNHK0xer0Yln5a4zU197-88" value="" style="endArrow=none;html=1;rounded=0;entryX=1;entryY=0.54;entryDx=0;entryDy=0;entryPerimeter=0;strokeColor=#FF0000;" parent="1" target="YNHK0xer0Yln5a4zU197-85" edge="1">
          <mxGeometry width="50" height="50" relative="1" as="geometry">
            <mxPoint x="375" y="140" as="sourcePoint" />
            <mxPoint x="340" y="160" as="targetPoint" />
            <Array as="points">
              <mxPoint x="375" y="170" />
            </Array>
          </mxGeometry>
        </mxCell>
        <mxCell id="YNHK0xer0Yln5a4zU197-89" value="" style="verticalLabelPosition=bottom;shadow=0;dashed=0;align=center;html=1;verticalAlign=top;shape=mxgraph.electrical.opto_electronics.led_1;pointerEvents=1;strokeColor=#FF0000;" parent="1" vertex="1">
          <mxGeometry x="410" y="161.5" width="40" height="15" as="geometry" />
        </mxCell>
        <mxCell id="YNHK0xer0Yln5a4zU197-90" value="" style="endArrow=none;html=1;rounded=0;entryX=1;entryY=0.54;entryDx=0;entryDy=0;entryPerimeter=0;strokeColor=#FF0000;" parent="1" target="YNHK0xer0Yln5a4zU197-89" edge="1">
          <mxGeometry width="50" height="50" relative="1" as="geometry">
            <mxPoint x="459" y="139" as="sourcePoint" />
            <mxPoint x="450" y="169" as="targetPoint" />
            <Array as="points">
              <mxPoint x="459" y="170" />
            </Array>
          </mxGeometry>
        </mxCell>
        <mxCell id="YNHK0xer0Yln5a4zU197-91" value="" style="endArrow=none;html=1;rounded=0;exitX=0;exitY=0.54;exitDx=0;exitDy=0;exitPerimeter=0;strokeColor=#FF0000;" parent="1" source="YNHK0xer0Yln5a4zU197-89" edge="1">
          <mxGeometry width="50" height="50" relative="1" as="geometry">
            <mxPoint x="400" y="170" as="sourcePoint" />
            <mxPoint x="400" y="140" as="targetPoint" />
            <Array as="points">
              <mxPoint x="400" y="170" />
            </Array>
          </mxGeometry>
        </mxCell>
        <mxCell id="YNHK0xer0Yln5a4zU197-92" value="x2" style="text;strokeColor=none;align=center;fillColor=none;html=1;verticalAlign=middle;whiteSpace=wrap;rounded=0;" parent="1" vertex="1">
          <mxGeometry x="880" y="335" width="20" height="20" as="geometry" />
        </mxCell>
        <mxCell id="whTVMd8TaMCAXGHtUnkB-1" value="&lt;font color=&quot;#ff0000&quot;&gt;588nF&lt;/font&gt;" style="text;strokeColor=none;align=center;fillColor=none;html=1;verticalAlign=middle;whiteSpace=wrap;rounded=0;direction=west;rotation=270;" parent="1" vertex="1">
          <mxGeometry x="615" y="184" width="60" height="30" as="geometry" />
        </mxCell>
        <mxCell id="whTVMd8TaMCAXGHtUnkB-2" value="" style="verticalLabelPosition=bottom;shadow=0;dashed=0;align=center;html=1;verticalAlign=top;shape=mxgraph.electrical.opto_electronics.led_1;pointerEvents=1;strokeColor=#FF0000;direction=south;" parent="1" vertex="1">
          <mxGeometry x="713" y="129" width="15" height="40" as="geometry" />
        </mxCell>
        <mxCell id="whTVMd8TaMCAXGHtUnkB-3" value="" style="endArrow=none;html=1;rounded=0;strokeColor=#FF0000;" parent="1" edge="1">
          <mxGeometry width="50" height="50" relative="1" as="geometry">
            <mxPoint x="720" y="120" as="sourcePoint" />
            <mxPoint x="680" y="120" as="targetPoint" />
          </mxGeometry>
        </mxCell>
        <mxCell id="whTVMd8TaMCAXGHtUnkB-4" value="" style="endArrow=none;html=1;rounded=0;strokeColor=#FF0000;exitX=0;exitY=0.54;exitDx=0;exitDy=0;exitPerimeter=0;" parent="1" source="whTVMd8TaMCAXGHtUnkB-2" edge="1">
          <mxGeometry width="50" height="50" relative="1" as="geometry">
            <mxPoint x="650" y="180" as="sourcePoint" />
            <mxPoint x="720" y="120" as="targetPoint" />
          </mxGeometry>
        </mxCell>
        <mxCell id="whTVMd8TaMCAXGHtUnkB-5" value="" style="endArrow=none;html=1;rounded=0;entryX=1;entryY=0.54;entryDx=0;entryDy=0;entryPerimeter=0;strokeColor=#FF0000;" parent="1" target="whTVMd8TaMCAXGHtUnkB-2" edge="1">
          <mxGeometry width="50" height="50" relative="1" as="geometry">
            <mxPoint x="720" y="180" as="sourcePoint" />
            <mxPoint x="700" y="150" as="targetPoint" />
          </mxGeometry>
        </mxCell>
        <mxCell id="whTVMd8TaMCAXGHtUnkB-6" value="" style="endArrow=none;html=1;rounded=0;strokeColor=#FF0000;" parent="1" edge="1">
          <mxGeometry width="50" height="50" relative="1" as="geometry">
            <mxPoint x="680" y="180" as="sourcePoint" />
            <mxPoint x="720" y="180" as="targetPoint" />
          </mxGeometry>
        </mxCell>
        <mxCell id="whTVMd8TaMCAXGHtUnkB-7" value="x2" style="text;strokeColor=none;align=center;fillColor=none;html=1;verticalAlign=middle;whiteSpace=wrap;rounded=0;" parent="1" vertex="1">
          <mxGeometry x="588" y="290" width="20" height="20" as="geometry" />
        </mxCell>
      </root>
    </mxGraphModel>
  </diagram>
</mxfile>
